<?xml version="1.0" encoding="UTF-8"?>
<!-- Created with Grafika (https://www.grafika.cc/) -->
<svg xmlns="http://www.w3.org/2000/svg" xmlns:svg="http://www.w3.org/2000/svg" xmlns:xlink="http://www.w3.org/1999/xlink" width="200" height="200" viewBox="0 0 200 200" preserveAspectRatio="xMidYMid meet">
	<defs>
		<linearGradient gradientUnits="userSpaceOnUse" gradientTransform="matrix(0.2785050868988037, 50.334835052490234, -50.334835052490234, 0.2785050868988037, -0.2575823664665222, -0.00046638771891593933)" spreadMethod="pad" id="gradient_1" x1="-1" y1="0" x2="1" y2="0">
			<stop offset="0%" stop-color="#202020" />
			<stop offset="100%" stop-color="#134C83" />
		</linearGradient>
	</defs>
	<g transform="matrix(1, 0, 0, 1, 100, 100)">
		<rect transform="matrix(1.9866772890090942, 0, 0, 1.9866772890090942, 0, 0)" x="-50.34" y="-50.34" width="100.67" height="100.67" style="fill:url(#gradient_1);" />
		<path transform="matrix(0.3073465824127197, 0, 0, 0.3073465824127197, -98.50464630126953, -98.50464630126953)" d="M121,121 C128.63,121 143.89,121 155.33,121 C157.53,123.07 466.34,430.12 467.28,430.87 L469,432.24 C469,388.87 469,215.37 469,172 C461,172 429,172 421,172 C421,199.65 421,310.23 421,337.88 L420.19,338.38 L419.38,338.88 C374.42,293.92 311.75,231.25 284.51,204 C292.56,195.95 308.67,179.84 320.75,167.75 C328.71,175.64 360.54,207.17 368.5,215.06 C368.67,199.46 369.33,137.09 369.5,121.5 C394.58,121.41 494.92,121.07 520,120.99 C520,187.49 520,453.5 520,520 C513.9,520 489.48,520 483.38,520 C386.68,423.5 186.2,223.51 172,209.54 C172,252.78 172,425.76 172,469 C180,469 212,469 220,469 C220,442.33 220,335.67 220,309 C220.42,309 222.09,309 222.51,309 C268,354.5 343.83,430.34 359,445.51 C359,446.01 359,448.02 359,448.52 C347.33,460.17 331.94,475.55 324,483.48 C306.67,466.17 289.35,448.85 272.02,431.54 C271.93,446.2 271.59,504.84 271.5,519.5 C246.42,519.59 146.08,519.93 121,520.01 C121,453.51 121,187.5 121,121 Z" style="fill:#0080FF;" />
	</g>
</svg>