<?xml version="1.0" encoding="UTF-8"?>

<svg xmlns="http://www.w3.org/2000/svg" xmlns:svg="http://www.w3.org/2000/svg" xmlns:xlink="http://www.w3.org/1999/xlink" width="20" height="20" viewBox="0 0 20 20" preserveAspectRatio="xMidYMid meet">
	<g transform="matrix(1.471093773841858, 0, 0, 1.471093773841858, 10, 10)">
		<g transform="matrix(0.014900987967848778, 0, 0, 0.014900987967848778, 0, 0)">
			<path transform="matrix(-32.25740432739258, 32.25740432739258, -32.25740432739258, -32.25740432739258, 201.60877990722656, -56.45055389404297)" d="M1,-2.32 Q0.47,-7.32 4,-7.32 Q7.53,-7.32 7,-2.32M6.92,6.74 Q7.45,11.74 3.92,11.74 Q0.39,11.74 0.92,6.74M7.28,2.03 L5.89,3.42 L2.13,1.08 L0.72,2.49" style="fill:none;stroke:var(--accent);stroke-linecap:round;stroke-linejoin:round;stroke-width:2;" />
			<path d="M410.57,-410.57 L158.27,-242.37 L242.37,-158.27 L410.57,-410.57 ZM-322.49,78.14 L-410.57,136.86 L-410.57,410.57 L-136.86,410.57 L-78.14,322.49 L-322.49,78.14 Z" fill-rule="evenodd" style="fill:currentColor;stroke:currentColor;stroke-linecap:round;stroke-linejoin:round;stroke-width:95.84;" />
		</g>
	</g>
</svg>